<svg xmlns="http://www.w3.org/2000/svg" viewBox="0 0 1600 900" width="1600" height="900"><defs><radialGradient id="glow"><stop stop-color="#57e4b0" stop-opacity=".45"/><stop offset="1" stop-color="#071c18" stop-opacity="0"/></radialGradient><linearGradient id="stroke"><stop stop-color="#16372e"/><stop offset=".5" stop-color="#7de3b5"/><stop offset="1" stop-color="#16372e"/></linearGradient><linearGradient id="veil" x2="1" y2="1"><stop stop-color="#061410"/><stop offset="1" stop-color="#112a27"/></linearGradient></defs><rect width="1600" height="900" fill="url(#veil)"/><ellipse cx="800" cy="450" rx="740" ry="520" fill="url(#glow)"/><ellipse cx="783" cy="499" rx="110" ry="90" fill="none" stroke="#6cddaa" opacity=".16"/><ellipse cx="783" cy="499" rx="171" ry="140" fill="none" stroke="#6cddaa" opacity=".16"/><ellipse cx="783" cy="499" rx="232" ry="190" fill="none" stroke="#6cddaa" opacity=".16"/><ellipse cx="783" cy="499" rx="292" ry="240" fill="none" stroke="#6cddaa" opacity=".16"/><ellipse cx="783" cy="499" rx="353" ry="290" fill="none" stroke="#6cddaa" opacity=".16"/><ellipse cx="783" cy="499" rx="414" ry="340" fill="none" stroke="#6cddaa" opacity=".16"/><ellipse cx="783" cy="499" rx="475" ry="390" fill="none" stroke="#6cddaa" opacity=".16"/><ellipse cx="783" cy="499" rx="536" ry="440" fill="none" stroke="#6cddaa" opacity=".16"/><ellipse cx="783" cy="499" rx="596" ry="490" fill="none" stroke="#6cddaa" opacity=".16"/><ellipse cx="783" cy="499" rx="657" ry="540" fill="none" stroke="#6cddaa" opacity=".16"/><ellipse cx="783" cy="499" rx="718" ry="590" fill="none" stroke="#6cddaa" opacity=".16"/><ellipse cx="783" cy="499" rx="779" ry="640" fill="none" stroke="#6cddaa" opacity=".16"/><ellipse cx="783" cy="499" rx="840" ry="690" fill="none" stroke="#6cddaa" opacity=".16"/><ellipse cx="783" cy="499" rx="900" ry="740" fill="none" stroke="#6cddaa" opacity=".16"/><ellipse cx="783" cy="499" rx="961" ry="790" fill="none" stroke="#6cddaa" opacity=".16"/><ellipse cx="783" cy="499" rx="1022" ry="840" fill="none" stroke="#6cddaa" opacity=".16"/><ellipse cx="783" cy="499" rx="1083" ry="890" fill="none" stroke="#6cddaa" opacity=".16"/><ellipse cx="783" cy="499" rx="1144" ry="940" fill="none" stroke="#6cddaa" opacity=".16"/><ellipse cx="783" cy="499" rx="1204" ry="990" fill="none" stroke="#6cddaa" opacity=".16"/><ellipse cx="783" cy="499" rx="1265" ry="1040" fill="none" stroke="#6cddaa" opacity=".16"/><ellipse cx="783" cy="499" rx="1326" ry="1090" fill="none" stroke="#6cddaa" opacity=".16"/><ellipse cx="783" cy="499" rx="1387" ry="1140" fill="none" stroke="#6cddaa" opacity=".16"/></svg>