<svg xmlns="http://www.w3.org/2000/svg" viewBox="0 0 1600 900" width="1600" height="900"><defs><radialGradient id="glow"><stop stop-color="#57e4b0" stop-opacity=".45"/><stop offset="1" stop-color="#071c18" stop-opacity="0"/></radialGradient><linearGradient id="stroke"><stop stop-color="#16372e"/><stop offset=".5" stop-color="#7de3b5"/><stop offset="1" stop-color="#16372e"/></linearGradient><linearGradient id="veil" x2="1" y2="1"><stop stop-color="#061410"/><stop offset="1" stop-color="#112a27"/></linearGradient></defs><rect width="1600" height="900" fill="url(#veil)"/><ellipse cx="800" cy="450" rx="740" ry="520" fill="url(#glow)"/><path d="M-400 0 L150 900" stroke="#6cddaa" opacity=".13"/><path d="M-340 0 L210 900" stroke="#6cddaa" opacity=".13"/><path d="M-280 0 L270 900" stroke="#6cddaa" opacity=".13"/><path d="M-220 0 L330 900" stroke="#6cddaa" opacity=".13"/><path d="M-160 0 L390 900" stroke="#6cddaa" opacity=".13"/><path d="M-100 0 L450 900" stroke="#6cddaa" opacity=".13"/><path d="M-40 0 L510 900" stroke="#6cddaa" opacity=".13"/><path d="M20 0 L570 900" stroke="#6cddaa" opacity=".13"/><path d="M80 0 L630 900" stroke="#6cddaa" opacity=".13"/><path d="M140 0 L690 900" stroke="#6cddaa" opacity=".13"/><path d="M200 0 L750 900" stroke="#6cddaa" opacity=".13"/><path d="M260 0 L810 900" stroke="#6cddaa" opacity=".13"/><path d="M320 0 L870 900" stroke="#6cddaa" opacity=".13"/><path d="M380 0 L930 900" stroke="#6cddaa" opacity=".13"/><path d="M440 0 L990 900" stroke="#6cddaa" opacity=".13"/><path d="M500 0 L1050 900" stroke="#6cddaa" opacity=".13"/><path d="M560 0 L1110 900" stroke="#6cddaa" opacity=".13"/><path d="M620 0 L1170 900" stroke="#6cddaa" opacity=".13"/><path d="M680 0 L1230 900" stroke="#6cddaa" opacity=".13"/><path d="M740 0 L1290 900" stroke="#6cddaa" opacity=".13"/><path d="M800 0 L1350 900" stroke="#6cddaa" opacity=".13"/><path d="M860 0 L1410 900" stroke="#6cddaa" opacity=".13"/><path d="M920 0 L1470 900" stroke="#6cddaa" opacity=".13"/><path d="M980 0 L1530 900" stroke="#6cddaa" opacity=".13"/><path d="M1040 0 L1590 900" stroke="#6cddaa" opacity=".13"/><path d="M1100 0 L1650 900" stroke="#6cddaa" opacity=".13"/><path d="M1160 0 L1710 900" stroke="#6cddaa" opacity=".13"/><path d="M1220 0 L1770 900" stroke="#6cddaa" opacity=".13"/><path d="M1280 0 L1830 900" stroke="#6cddaa" opacity=".13"/><path d="M1340 0 L1890 900" stroke="#6cddaa" opacity=".13"/><path d="M1400 0 L1950 900" stroke="#6cddaa" opacity=".13"/><path d="M1460 0 L2010 900" stroke="#6cddaa" opacity=".13"/><path d="M1520 0 L2070 900" stroke="#6cddaa" opacity=".13"/><path d="M1580 0 L2130 900" stroke="#6cddaa" opacity=".13"/><path d="M1640 0 L2190 900" stroke="#6cddaa" opacity=".13"/><path d="M1700 0 L2250 900" stroke="#6cddaa" opacity=".13"/><path d="M1760 0 L2310 900" stroke="#6cddaa" opacity=".13"/><path d="M1820 0 L2370 900" stroke="#6cddaa" opacity=".13"/><path d="M1880 0 L2430 900" stroke="#6cddaa" opacity=".13"/><path d="M1940 0 L2490 900" stroke="#6cddaa" opacity=".13"/><path d="M2000 0 L2550 900" stroke="#6cddaa" opacity=".13"/><path d="M2060 0 L2610 900" stroke="#6cddaa" opacity=".13"/><path d="M0 0 H1600" stroke="#6cddaa" opacity=".13"/><path d="M0 60 H1600" stroke="#6cddaa" opacity=".13"/><path d="M0 120 H1600" stroke="#6cddaa" opacity=".13"/><path d="M0 180 H1600" stroke="#6cddaa" opacity=".13"/><path d="M0 240 H1600" stroke="#6cddaa" opacity=".13"/><path d="M0 300 H1600" stroke="#6cddaa" opacity=".13"/><path d="M0 360 H1600" stroke="#6cddaa" opacity=".13"/><path d="M0 420 H1600" stroke="#6cddaa" opacity=".13"/><path d="M0 480 H1600" stroke="#6cddaa" opacity=".13"/><path d="M0 540 H1600" stroke="#6cddaa" opacity=".13"/><path d="M0 600 H1600" stroke="#6cddaa" opacity=".13"/><path d="M0 660 H1600" stroke="#6cddaa" opacity=".13"/><path d="M0 720 H1600" stroke="#6cddaa" opacity=".13"/><path d="M0 780 H1600" stroke="#6cddaa" opacity=".13"/><path d="M0 840 H1600" stroke="#6cddaa" opacity=".13"/><path d="M0 900 H1600" stroke="#6cddaa" opacity=".13"/><path d="M-100 650 H480 L730 310 H1700" fill="none" stroke="url(#stroke)" stroke-width="2.5"/><path d="M-100 662 H504 L754 322 H1700" fill="none" stroke="url(#stroke)" stroke-width="2.5"/><path d="M-100 674 H528 L778 334 H1700" fill="none" stroke="url(#stroke)" stroke-width="2.5"/><path d="M-100 686 H552 L802 346 H1700" fill="none" stroke="url(#stroke)" stroke-width="2.5"/><path d="M-100 698 H576 L826 358 H1700" fill="none" stroke="url(#stroke)" stroke-width="2.5"/><path d="M-100 710 H600 L850 370 H1700" fill="none" stroke="url(#stroke)" stroke-width="2.5"/><path d="M-100 722 H624 L874 382 H1700" fill="none" stroke="url(#stroke)" stroke-width="2.5"/></svg>